# File produced by Open Asset Import Library (http://www.assimp.sf.net)
# (assimp v3.1.128981410)

mtllib cloth%20prefab.mtl

# vertex positions
v -0.319563 1.098480 0.496900
v 0.373802 1.098480 0.496900
v 0.373802 1.196048 0.496900
v -0.319563 1.196048 0.496900
v -0.319563 1.196048 -0.496900
v 0.373802 1.196048 -0.496900
v 0.373802 1.098480 -0.496900
v -0.319563 1.098480 -0.496900
v -0.358556 1.092860 0.554139
v 0.449719 1.060599 0.554139
v -0.358556 1.201667 0.554139
v -0.358556 1.201667 -0.554139
v 0.406994 1.201667 -0.554139
v 0.429127 1.200143 -0.507256
v 0.449719 1.060599 -0.554139
v -0.358556 1.092860 -0.554139
v 0.449719 1.201667 -0.490444
v 0.429127 1.200143 0.524900
v 0.449719 1.201667 0.508088
v -0.392695 1.253127 -0.490444
v -0.376873 1.227006 -0.554139
v -0.426084 1.157598 -0.554139
v -0.449543 1.172945 -0.490444
v -0.326284 1.307457 -0.490444
v -0.319552 1.273901 -0.554139
v 0.363633 1.284325 -0.490444
v 0.355331 1.251273 -0.554139
v -0.384364 1.017026 -0.554139
v -0.393912 0.983651 -0.490444
v -0.461801 1.065669 -0.490444
v -0.435138 1.078366 -0.554139
v -0.333773 1.015903 -0.554139
v -0.323517 0.984053 -0.489129
v 0.449719 1.017373 -0.554139
v 0.449719 0.984053 -0.490444
v 0.449719 1.017373 0.554139
v 0.449719 0.984053 0.508088
v 0.406994 1.201667 0.554139
v -0.384364 1.017026 0.554139
v -0.393912 0.983651 0.508088
v -0.323517 0.984053 0.506745
v -0.333782 1.015929 0.554139
v -0.435138 1.078366 0.554139
v -0.461801 1.065669 0.508088
v -0.376874 1.227006 0.554139
v -0.392695 1.253127 0.508088
v -0.449543 1.172945 0.508088
v -0.426084 1.157598 0.554139
v -0.319552 1.273901 0.554139
v -0.326284 1.307457 0.508088
v 0.355331 1.251273 0.554139
v 0.363633 1.284325 0.508088

# UV coordinates
vt 0.329871 0.214267
vt 0.498756 0.146548
vt 0.510190 0.172700
vt 0.336703 0.235241
vt 0.241059 0.588176
vt 0.405505 0.668730
vt 0.392059 0.694964
vt 0.230220 0.607422
vt 0.747402 0.040031
vt 0.759721 0.064451
vt 0.310235 0.209501
vt 0.494046 0.126365
vt 0.324675 0.251680
vt 0.229953 0.570482
vt 0.417089 0.655705
vt 0.425431 0.664254
vt 0.401035 0.722725
vt 0.210007 0.609647
vt 0.750597 0.013084
vt 0.769210 0.077404
vt 0.767806 0.084392
vt 0.515688 0.186486
vt 0.522636 0.188646
vt 0.227483 0.539026
vt 0.228444 0.561589
vt 0.205751 0.578583
vt 0.192860 0.562507
vt 0.252616 0.541007
vt 0.247830 0.558240
vt 0.427739 0.623188
vt 0.411813 0.637843
vt 0.432868 0.665984
vt 0.194100 0.622450
vt 0.179090 0.637029
vt 0.172482 0.599066
vt 0.191876 0.599832
vt 0.204492 0.630540
vt 0.195846 0.648395
vt 0.395272 0.733720
vt 0.385768 0.751925
vt 0.489376 0.115245
vt 0.493764 0.101404
vt 0.726093 0.000000
vt 0.745442 0.001815
vt 0.515558 0.187670
vt 0.295460 0.196008
vt 0.282908 0.186722
vt 0.302535 0.171547
vt 0.306774 0.187490
vt 0.292531 0.217560
vt 0.280193 0.217593
vt 0.321372 0.259663
vt 0.317144 0.275811
vt 0.286916 0.248241
vt 0.300411 0.238876
vt 0.340006 0.267346
vt 0.341280 0.282967
vt 0.509172 0.205750
vt 0.521247 0.219874
vt 0.533588 0.349464
vt 0.057806 0.896339
vt 0.040307 0.886601
vt 0.252932 1.000000
vt 0.783857 0.115534
vt 0.000000 0.201898
vt 0.001405 0.232082
vt 0.003054 0.263108
vt 0.288428 0.276068
vt 0.004587 0.290946

# vertex normals
vn 0.000000 0.000000 1.000000
vn 0.000000 0.000000 -1.000000
vn 1.000000 0.000000 0.000000
vn 0.020125 0.936736 0.349459
vn 0.020125 0.936736 0.349459
vn 0.826457 0.000000 0.563000
vn 0.000000 -0.995216 -0.097701
vn 0.003799 -0.995420 -0.095521
vn 0.062183 -0.996154 -0.061737
vn 0.001758 -0.995313 -0.096693
vn 0.020125 0.936736 -0.349459
vn 0.020125 0.936736 -0.349459
vn 0.826457 0.000000 -0.563000
vn 0.446481 0.894793 0.000000
vn 0.073821 -0.997271 0.000000
vn 0.073818 -0.997272 0.000000
vn 0.073808 -0.997272 -0.000001
vn 0.073806 -0.997273 0.000000
vn -0.736667 0.675798 -0.024898
vn -0.676015 0.607512 -0.417053
vn -0.863610 0.314675 -0.393899
vn -0.937629 0.346941 -0.021986
vn -0.040699 0.998749 -0.029050
vn -0.036779 0.882523 -0.468830
vn 0.133700 0.990607 -0.028658
vn 0.109320 0.876392 -0.469026
vn 0.692768 0.720963 -0.016888
vn 0.629757 0.651888 -0.422431
vn -0.468807 -0.754503 -0.459288
vn -0.509717 -0.860006 -0.024055
vn -0.958935 -0.282788 -0.021776
vn -0.876143 -0.244416 -0.415494
vn 0.000387 -0.892122 -0.451795
vn 0.000479 -0.999468 -0.032606
vn 0.000461 -0.892133 -0.451772
vn 0.000032 -0.999521 -0.030936
vn -0.000001 0.000000 -1.000000
vn 0.000001 0.000000 -1.000000
vn 0.160518 -0.981143 -0.107670
vn 0.000000 -0.995216 0.097702
vn 0.002019 -0.995327 0.096543
vn 0.034324 -0.996369 0.077913
vn 0.000523 -0.995245 0.097403
vn -0.431388 -0.690184 0.580991
vn -0.389884 -0.710566 0.585735
vn 0.000347 -0.820091 0.572233
vn 0.000390 -0.820084 0.572243
vn -0.815349 -0.224037 0.533867
vn -0.803273 -0.258784 0.536455
vn 0.000267 -0.820104 0.572215
vn -0.629574 0.562861 0.535560
vn -0.613576 0.577601 0.538425
vn -0.796940 0.319694 0.512525
vn -0.809457 0.291730 0.509582
vn -0.034443 0.805310 0.591853
vn -0.024667 0.806227 0.591092
vn 0.100987 0.799538 0.592065
vn 0.087474 0.801753 0.591219
vn 0.583204 0.605886 0.541087
vn 0.584118 0.604245 0.541935
vn -0.000001 0.000000 1.000000
vn 0.000001 0.000000 1.000000
vn -0.737272 0.675596 0.000000
vn -0.041215 0.999150 0.000000
vn 0.135077 0.990835 0.000000
vn 0.000481 -1.000000 0.000000
vn 0.005707 -0.999984 0.000000
vn 0.000000 -1.000000 0.000000
vn 0.692598 0.721324 0.000000
vn -0.770333 -0.637642 0.000000
vn -0.959424 -0.281966 0.000000
vn -0.938273 0.345895 0.000000
vn 0.281696 -0.923226 0.261347

# Mesh
g pCube6
usemtl initialShadingGroup
f 4/4/1 1/1/1 2/2/1
f 2/2/1 3/3/1 4/4/1
f 8/8/2 5/5/2 6/6/2
f 6/6/2 7/7/2 8/8/2
f 3/3/3 2/2/3 7/9/3
f 7/9/3 6/10/3 3/3/3
f 1/1/4 9/11/4 10/12/5
f 10/12/5 2/2/5 1/1/4
f 4/4/6 11/13/6 9/11/6
f 9/11/6 1/1/6 4/4/6
f 12/14/7 13/15/8 5/5/7
f 14/16/9 6/6/10 13/15/8
f 13/15/8 6/6/10 5/5/7
f 7/7/11 15/17/11 16/18/11
f 16/18/11 8/8/12 7/7/11
f 8/8/13 16/18/13 12/14/13
f 12/14/13 5/5/13 8/8/13
f 2/2/14 10/12/14 15/19/14
f 15/19/14 7/9/14 2/2/14
f 6/10/15 14/20/16 3/3/15
f 14/20/16 17/21/17 3/3/15
f 3/3/15 17/21/17 18/22/16
f 17/21/17 19/23/18 18/22/16
f 23/27/22 20/24/19 21/25/20
f 21/25/20 22/26/21 23/27/22
f 25/29/24 21/25/20 20/24/19
f 20/24/19 24/28/23 25/29/24
f 27/31/26 25/29/24 24/28/23
f 24/28/23 26/30/25 27/31/26
f 13/15/28 27/31/26 26/30/25
f 26/30/25 17/32/27 13/15/28
f 31/36/32 28/33/29 29/34/30
f 29/34/30 30/35/31 31/36/32
f 33/38/34 29/34/30 28/33/29
f 28/33/29 32/37/33 33/38/34
f 35/40/36 33/38/34 32/37/33
f 32/37/33 34/39/35 35/40/36
f 30/35/31 23/27/22 22/26/21
f 22/26/21 31/36/32 30/35/31
f 22/26/37 21/25/2 25/29/2
f 25/29/2 12/14/2 22/26/37
f 12/14/2 25/29/2 27/31/2
f 27/31/2 13/15/2 12/14/2
f 31/36/2 22/26/37 12/14/2
f 12/14/2 16/18/2 31/36/2
f 28/33/38 31/36/2 16/18/2
f 16/18/2 32/37/2 28/33/38
f 32/37/2 16/18/2 15/17/2
f 15/17/2 34/39/2 32/37/2
f 14/16/39 13/15/28 17/32/27
f 34/44/3 36/41/3 37/42/3
f 37/42/3 35/43/3 34/44/3
f 11/13/40 4/4/40 38/45/41
f 18/22/42 38/45/41 3/3/43
f 38/45/41 4/4/40 3/3/43
f 42/49/47 39/46/44 40/47/45
f 40/47/45 41/48/46 42/49/47
f 44/51/49 40/47/45 39/46/44
f 39/46/44 43/50/48 44/51/49
f 36/41/50 42/49/47 41/48/46
f 41/48/46 37/42/50 36/41/50
f 48/55/54 45/52/51 46/53/52
f 46/53/52 47/54/53 48/55/54
f 50/57/56 46/53/52 45/52/51
f 45/52/51 49/56/55 50/57/56
f 52/59/58 50/57/56 49/56/55
f 49/56/55 51/58/57 52/59/58
f 19/23/60 52/59/58 51/58/57
f 51/58/57 38/45/59 19/23/60
f 47/54/53 44/51/49 43/50/48
f 43/50/48 48/55/54 47/54/53
f 43/50/1 39/46/61 42/49/1
f 42/49/1 9/11/1 43/50/1
f 9/11/1 42/49/1 36/41/1
f 36/41/1 10/12/1 9/11/1
f 48/55/62 43/50/1 9/11/1
f 9/11/1 11/13/1 48/55/62
f 45/52/1 48/55/62 11/13/1
f 11/13/1 49/56/1 45/52/1
f 49/56/1 11/13/1 38/45/1
f 38/45/1 51/58/1 49/56/1
f 20/24/19 46/53/63 50/57/64
f 50/57/64 24/28/23 20/24/19
f 24/28/23 50/57/64 52/60/65
f 52/60/65 26/30/25 24/28/23
f 40/62/67 29/34/30 33/38/34
f 33/38/34 41/61/66 40/62/67
f 41/61/66 33/38/34 35/40/36
f 35/40/36 37/63/68 41/61/66
f 26/64/25 52/59/65 19/23/69
f 19/23/69 17/21/27 26/64/25
f 30/66/31 29/65/30 40/47/70
f 40/47/70 44/51/71 30/66/31
f 23/67/22 30/66/31 44/51/71
f 44/51/71 47/54/72 23/67/22
f 20/69/19 23/67/22 47/54/72
f 47/54/72 46/68/63 20/69/19
f 19/23/60 38/45/59 18/22/73
f 10/12/3 36/41/3 34/44/3
f 34/44/3 15/19/3 10/12/3
